<svg width="683" height="683" viewBox="0 0 683 683" fill="none" xmlns="http://www.w3.org/2000/svg">
<path d="M159.449 83.5469H152.301L150.695 88H148.375L154.891 70.9375H156.859L163.387 88H161.078L159.449 83.5469ZM152.98 81.6953H158.781L155.875 73.7148L152.98 81.6953ZM168.099 88H165.931V70H168.099V88ZM174.335 88H172.167V70H174.335V88ZM182.727 81.6367H177.009V79.8672H182.727V81.6367ZM187.299 75.3203L187.37 76.9141C188.338 75.6953 189.604 75.0859 191.166 75.0859C193.846 75.0859 195.198 76.5977 195.221 79.6211V88H193.053V79.6094C193.045 78.6953 192.834 78.0195 192.42 77.582C192.014 77.1445 191.377 76.9258 190.51 76.9258C189.807 76.9258 189.19 77.1133 188.659 77.4883C188.127 77.8633 187.713 78.3555 187.416 78.9648V88H185.248V75.3203H187.299ZM206.719 88C206.594 87.75 206.492 87.3047 206.414 86.6641C205.406 87.7109 204.203 88.2344 202.805 88.2344C201.555 88.2344 200.527 87.8828 199.723 87.1797C198.926 86.4688 198.527 85.5703 198.527 84.4844C198.527 83.1641 199.027 82.1406 200.027 81.4141C201.035 80.6797 202.449 80.3125 204.27 80.3125H206.379V79.3164C206.379 78.5586 206.152 77.957 205.699 77.5117C205.246 77.0586 204.578 76.832 203.695 76.832C202.922 76.832 202.273 77.0273 201.75 77.418C201.227 77.8086 200.965 78.2812 200.965 78.8359H198.785C198.785 78.2031 199.008 77.5938 199.453 77.0078C199.906 76.4141 200.516 75.9453 201.281 75.6016C202.055 75.2578 202.902 75.0859 203.824 75.0859C205.285 75.0859 206.43 75.4531 207.258 76.1875C208.086 76.9141 208.516 77.918 208.547 79.1992V85.0352C208.547 86.1992 208.695 87.125 208.992 87.8125V88H206.719ZM203.121 86.3477C203.801 86.3477 204.445 86.1719 205.055 85.8203C205.664 85.4688 206.105 85.0117 206.379 84.4492V81.8477H204.68C202.023 81.8477 200.695 82.625 200.695 84.1797C200.695 84.8594 200.922 85.3906 201.375 85.7734C201.828 86.1562 202.41 86.3477 203.121 86.3477ZM215.287 72.25V75.3203H217.654V76.9961H215.287V84.8594C215.287 85.3672 215.392 85.75 215.603 86.0078C215.814 86.2578 216.173 86.3828 216.681 86.3828C216.931 86.3828 217.275 86.3359 217.713 86.2422V88C217.142 88.1562 216.588 88.2344 216.048 88.2344C215.08 88.2344 214.349 87.9414 213.857 87.3555C213.365 86.7695 213.119 85.9375 213.119 84.8594V76.9961H210.81V75.3203H213.119V72.25H215.287ZM228.425 86.7461C227.581 87.7383 226.343 88.2344 224.71 88.2344C223.359 88.2344 222.327 87.8438 221.616 87.0625C220.913 86.2734 220.558 85.1094 220.55 83.5703V75.3203H222.718V83.5117C222.718 85.4336 223.499 86.3945 225.062 86.3945C226.718 86.3945 227.82 85.7773 228.366 84.543V75.3203H230.534V88H228.472L228.425 86.7461ZM240.368 77.2656C240.04 77.2109 239.684 77.1836 239.302 77.1836C237.88 77.1836 236.915 77.7891 236.407 79V88H234.239V75.3203H236.348L236.384 76.7852C237.095 75.6523 238.102 75.0859 239.407 75.0859C239.829 75.0859 240.149 75.1406 240.368 75.25V77.2656ZM250.131 88C250.006 87.75 249.905 87.3047 249.827 86.6641C248.819 87.7109 247.616 88.2344 246.217 88.2344C244.967 88.2344 243.94 87.8828 243.135 87.1797C242.338 86.4688 241.94 85.5703 241.94 84.4844C241.94 83.1641 242.44 82.1406 243.44 81.4141C244.448 80.6797 245.862 80.3125 247.682 80.3125H249.791V79.3164C249.791 78.5586 249.565 77.957 249.112 77.5117C248.659 77.0586 247.991 76.832 247.108 76.832C246.334 76.832 245.686 77.0273 245.162 77.418C244.639 77.8086 244.377 78.2812 244.377 78.8359H242.198C242.198 78.2031 242.42 77.5938 242.866 77.0078C243.319 76.4141 243.928 75.9453 244.694 75.6016C245.467 75.2578 246.315 75.0859 247.237 75.0859C248.698 75.0859 249.842 75.4531 250.67 76.1875C251.498 76.9141 251.928 77.918 251.959 79.1992V85.0352C251.959 86.1992 252.108 87.125 252.405 87.8125V88H250.131ZM246.534 86.3477C247.213 86.3477 247.858 86.1719 248.467 85.8203C249.077 85.4688 249.518 85.0117 249.791 84.4492V81.8477H248.092C245.436 81.8477 244.108 82.625 244.108 84.1797C244.108 84.8594 244.334 85.3906 244.787 85.7734C245.241 86.1562 245.823 86.3477 246.534 86.3477ZM258.113 88H255.945V70H258.113V88Z" fill="#FFFAEF"/>
<path d="M371.715 91.3984L370.484 90.5547C371.219 89.5312 371.602 88.4766 371.633 87.3906V85.4336H373.754V87.1328C373.754 87.9219 373.559 88.7109 373.168 89.5C372.785 90.2891 372.301 90.9219 371.715 91.3984Z" fill="#FFFAEF"/>
<path d="M313.516 91.3984L312.286 90.5547C313.02 89.5312 313.403 88.4766 313.434 87.3906V85.4336H315.555V87.1328C315.555 87.9219 315.36 88.7109 314.97 89.5C314.587 90.2891 314.102 90.9219 313.516 91.3984ZM332.879 88C332.754 87.75 332.652 87.3047 332.574 86.6641C331.566 87.7109 330.363 88.2344 328.965 88.2344C327.715 88.2344 326.688 87.8828 325.883 87.1797C325.086 86.4688 324.688 85.5703 324.688 84.4844C324.688 83.1641 325.188 82.1406 326.188 81.4141C327.195 80.6797 328.609 80.3125 330.43 80.3125H332.539V79.3164C332.539 78.5586 332.312 77.957 331.859 77.5117C331.406 77.0586 330.738 76.832 329.855 76.832C329.082 76.832 328.434 77.0273 327.91 77.418C327.387 77.8086 327.125 78.2812 327.125 78.8359H324.945C324.945 78.2031 325.168 77.5938 325.613 77.0078C326.066 76.4141 326.676 75.9453 327.441 75.6016C328.215 75.2578 329.062 75.0859 329.984 75.0859C331.445 75.0859 332.59 75.4531 333.418 76.1875C334.246 76.9141 334.676 77.918 334.707 79.1992V85.0352C334.707 86.1992 334.855 87.125 335.152 87.8125V88H332.879ZM329.281 86.3477C329.961 86.3477 330.605 86.1719 331.215 85.8203C331.824 85.4688 332.266 85.0117 332.539 84.4492V81.8477H330.84C328.184 81.8477 326.855 82.625 326.855 84.1797C326.855 84.8594 327.082 85.3906 327.535 85.7734C327.988 86.1562 328.57 86.3477 329.281 86.3477ZM340.556 75.3203L340.627 76.9141C341.595 75.6953 342.861 75.0859 344.423 75.0859C347.103 75.0859 348.455 76.5977 348.478 79.6211V88H346.31V79.6094C346.302 78.6953 346.091 78.0195 345.677 77.582C345.271 77.1445 344.634 76.9258 343.767 76.9258C343.064 76.9258 342.447 77.1133 341.916 77.4883C341.384 77.8633 340.97 78.3555 340.673 78.9648V88H338.505V75.3203H340.556ZM351.62 81.5547C351.62 79.6094 352.081 78.0469 353.003 76.8672C353.925 75.6797 355.132 75.0859 356.624 75.0859C358.109 75.0859 359.284 75.5938 360.152 76.6094V70H362.32V88H360.327L360.222 86.6406C359.355 87.7031 358.148 88.2344 356.601 88.2344C355.132 88.2344 353.933 87.6328 353.003 86.4297C352.081 85.2266 351.62 83.6562 351.62 81.7188V81.5547ZM353.788 81.8008C353.788 83.2383 354.085 84.3633 354.679 85.1758C355.273 85.9883 356.093 86.3945 357.14 86.3945C358.515 86.3945 359.519 85.7773 360.152 84.543V78.7188C359.503 77.5234 358.507 76.9258 357.163 76.9258C356.101 76.9258 355.273 77.3359 354.679 78.1562C354.085 78.9766 353.788 80.1914 353.788 81.8008Z" fill="#FFFAEF"/>
<path d="M197.805 114V102.996H195.801V101.32H197.805V100.02C197.805 98.6602 198.168 97.6094 198.895 96.8672C199.621 96.125 200.648 95.7539 201.977 95.7539C202.477 95.7539 202.973 95.8203 203.465 95.9531L203.348 97.7109C202.98 97.6406 202.59 97.6055 202.176 97.6055C201.473 97.6055 200.93 97.8125 200.547 98.2266C200.164 98.6328 199.973 99.2188 199.973 99.9844V101.32H202.68V102.996H199.973V114H197.805ZM204.908 107.543C204.908 106.301 205.15 105.184 205.634 104.191C206.127 103.199 206.806 102.434 207.673 101.895C208.548 101.355 209.545 101.086 210.662 101.086C212.388 101.086 213.783 101.684 214.845 102.879C215.916 104.074 216.451 105.664 216.451 107.648V107.801C216.451 109.035 216.212 110.145 215.736 111.129C215.267 112.105 214.591 112.867 213.709 113.414C212.834 113.961 211.826 114.234 210.685 114.234C208.966 114.234 207.572 113.637 206.502 112.441C205.439 111.246 204.908 109.664 204.908 107.695V107.543ZM207.087 107.801C207.087 109.207 207.412 110.336 208.06 111.188C208.716 112.039 209.591 112.465 210.685 112.465C211.787 112.465 212.662 112.035 213.31 111.176C213.959 110.309 214.283 109.098 214.283 107.543C214.283 106.152 213.951 105.027 213.287 104.168C212.63 103.301 211.755 102.867 210.662 102.867C209.591 102.867 208.728 103.293 208.072 104.145C207.416 104.996 207.087 106.215 207.087 107.801ZM225.698 103.266C225.37 103.211 225.015 103.184 224.632 103.184C223.21 103.184 222.245 103.789 221.737 105V114H219.57V101.32H221.679L221.714 102.785C222.425 101.652 223.433 101.086 224.737 101.086C225.159 101.086 225.48 101.141 225.698 101.25V103.266ZM230.141 101.32L230.2 102.727C231.13 101.633 232.384 101.086 233.962 101.086C235.735 101.086 236.942 101.766 237.583 103.125C238.005 102.516 238.552 102.023 239.223 101.648C239.903 101.273 240.704 101.086 241.626 101.086C244.407 101.086 245.821 102.559 245.868 105.504V114H243.7V105.633C243.7 104.727 243.493 104.051 243.079 103.605C242.665 103.152 241.97 102.926 240.993 102.926C240.188 102.926 239.52 103.168 238.989 103.652C238.458 104.129 238.149 104.773 238.063 105.586V114H235.884V105.691C235.884 103.848 234.981 102.926 233.177 102.926C231.755 102.926 230.782 103.531 230.259 104.742V114H228.091V101.32H230.141ZM257.377 112.746C256.534 113.738 255.295 114.234 253.662 114.234C252.311 114.234 251.28 113.844 250.569 113.062C249.866 112.273 249.51 111.109 249.502 109.57V101.32H251.67V109.512C251.67 111.434 252.452 112.395 254.014 112.395C255.67 112.395 256.772 111.777 257.319 110.543V101.32H259.487V114H257.424L257.377 112.746ZM265.547 114H263.379V96H265.547V114ZM277.255 114C277.13 113.75 277.029 113.305 276.951 112.664C275.943 113.711 274.74 114.234 273.341 114.234C272.091 114.234 271.064 113.883 270.259 113.18C269.463 112.469 269.064 111.57 269.064 110.484C269.064 109.164 269.564 108.141 270.564 107.414C271.572 106.68 272.986 106.312 274.806 106.312H276.916V105.316C276.916 104.559 276.689 103.957 276.236 103.512C275.783 103.059 275.115 102.832 274.232 102.832C273.459 102.832 272.81 103.027 272.287 103.418C271.763 103.809 271.502 104.281 271.502 104.836H269.322C269.322 104.203 269.545 103.594 269.99 103.008C270.443 102.414 271.052 101.945 271.818 101.602C272.591 101.258 273.439 101.086 274.361 101.086C275.822 101.086 276.966 101.453 277.795 102.188C278.623 102.914 279.052 103.918 279.084 105.199V111.035C279.084 112.199 279.232 113.125 279.529 113.812V114H277.255ZM273.658 112.348C274.338 112.348 274.982 112.172 275.591 111.82C276.201 111.469 276.642 111.012 276.916 110.449V107.848H275.216C272.56 107.848 271.232 108.625 271.232 110.18C271.232 110.859 271.459 111.391 271.912 111.773C272.365 112.156 272.947 112.348 273.658 112.348ZM285.823 98.25V101.32H288.191V102.996H285.823V110.859C285.823 111.367 285.929 111.75 286.14 112.008C286.351 112.258 286.71 112.383 287.218 112.383C287.468 112.383 287.812 112.336 288.249 112.242V114C287.679 114.156 287.124 114.234 286.585 114.234C285.616 114.234 284.886 113.941 284.394 113.355C283.902 112.77 283.655 111.938 283.655 110.859V102.996H281.347V101.32H283.655V98.25H285.823ZM296.395 114.234C294.677 114.234 293.278 113.672 292.2 112.547C291.122 111.414 290.583 109.902 290.583 108.012V107.613C290.583 106.355 290.821 105.234 291.298 104.25C291.782 103.258 292.454 102.484 293.313 101.93C294.18 101.367 295.118 101.086 296.126 101.086C297.774 101.086 299.055 101.629 299.97 102.715C300.884 103.801 301.341 105.355 301.341 107.379V108.281H292.751C292.782 109.531 293.145 110.543 293.841 111.316C294.544 112.082 295.434 112.465 296.512 112.465C297.278 112.465 297.927 112.309 298.458 111.996C298.989 111.684 299.454 111.27 299.852 110.754L301.177 111.785C300.114 113.418 298.52 114.234 296.395 114.234ZM296.126 102.867C295.251 102.867 294.516 103.188 293.923 103.828C293.329 104.461 292.962 105.352 292.821 106.5H299.173V106.336C299.11 105.234 298.813 104.383 298.282 103.781C297.751 103.172 297.032 102.867 296.126 102.867ZM303.733 107.555C303.733 105.609 304.194 104.047 305.116 102.867C306.037 101.68 307.245 101.086 308.737 101.086C310.221 101.086 311.397 101.594 312.264 102.609V96H314.432V114H312.44L312.334 112.641C311.467 113.703 310.26 114.234 308.713 114.234C307.245 114.234 306.045 113.633 305.116 112.43C304.194 111.227 303.733 109.656 303.733 107.719V107.555ZM305.901 107.801C305.901 109.238 306.198 110.363 306.791 111.176C307.385 111.988 308.205 112.395 309.252 112.395C310.627 112.395 311.631 111.777 312.264 110.543V104.719C311.616 103.523 310.62 102.926 309.276 102.926C308.213 102.926 307.385 103.336 306.791 104.156C306.198 104.977 305.901 106.191 305.901 107.801ZM327.502 98.25V101.32H329.869V102.996H327.502V110.859C327.502 111.367 327.607 111.75 327.818 112.008C328.029 112.258 328.388 112.383 328.896 112.383C329.146 112.383 329.49 112.336 329.927 112.242V114C329.357 114.156 328.802 114.234 328.263 114.234C327.295 114.234 326.564 113.941 326.072 113.355C325.58 112.77 325.334 111.938 325.334 110.859V102.996H323.025V101.32H325.334V98.25H327.502ZM332.003 107.543C332.003 106.301 332.245 105.184 332.73 104.191C333.222 103.199 333.902 102.434 334.769 101.895C335.644 101.355 336.64 101.086 337.757 101.086C339.484 101.086 340.878 101.684 341.941 102.879C343.011 104.074 343.546 105.664 343.546 107.648V107.801C343.546 109.035 343.308 110.145 342.831 111.129C342.363 112.105 341.687 112.867 340.804 113.414C339.929 113.961 338.921 114.234 337.78 114.234C336.062 114.234 334.667 113.637 333.597 112.441C332.534 111.246 332.003 109.664 332.003 107.695V107.543ZM334.183 107.801C334.183 109.207 334.507 110.336 335.155 111.188C335.812 112.039 336.687 112.465 337.78 112.465C338.882 112.465 339.757 112.035 340.405 111.176C341.054 110.309 341.378 109.098 341.378 107.543C341.378 106.152 341.046 105.027 340.382 104.168C339.726 103.301 338.851 102.867 337.757 102.867C336.687 102.867 335.823 103.293 335.167 104.145C334.511 104.996 334.183 106.215 334.183 107.801ZM355.069 101.32L355.139 102.914C356.108 101.695 357.373 101.086 358.936 101.086C361.616 101.086 362.967 102.598 362.991 105.621V114H360.823V105.609C360.815 104.695 360.604 104.02 360.19 103.582C359.784 103.145 359.147 102.926 358.28 102.926C357.577 102.926 356.959 103.113 356.428 103.488C355.897 103.863 355.483 104.355 355.186 104.965V114H353.018V101.32H355.069ZM366.086 107.543C366.086 106.301 366.328 105.184 366.812 104.191C367.305 103.199 367.984 102.434 368.852 101.895C369.727 101.355 370.723 101.086 371.84 101.086C373.566 101.086 374.961 101.684 376.023 102.879C377.094 104.074 377.629 105.664 377.629 107.648V107.801C377.629 109.035 377.391 110.145 376.914 111.129C376.445 112.105 375.77 112.867 374.887 113.414C374.012 113.961 373.004 114.234 371.863 114.234C370.145 114.234 368.75 113.637 367.68 112.441C366.617 111.246 366.086 109.664 366.086 107.695V107.543ZM368.266 107.801C368.266 109.207 368.59 110.336 369.238 111.188C369.895 112.039 370.77 112.465 371.863 112.465C372.965 112.465 373.84 112.035 374.488 111.176C375.137 110.309 375.461 109.098 375.461 107.543C375.461 106.152 375.129 105.027 374.465 104.168C373.809 103.301 372.934 102.867 371.84 102.867C370.77 102.867 369.906 103.293 369.25 104.145C368.594 104.996 368.266 106.215 368.266 107.801ZM388.576 112.746C387.732 113.738 386.494 114.234 384.861 114.234C383.509 114.234 382.478 113.844 381.767 113.062C381.064 112.273 380.709 111.109 380.701 109.57V101.32H382.869V109.512C382.869 111.434 383.65 112.395 385.212 112.395C386.869 112.395 387.97 111.777 388.517 110.543V101.32H390.685V114H388.623L388.576 112.746ZM400.519 103.266C400.191 103.211 399.835 103.184 399.452 103.184C398.03 103.184 397.066 103.789 396.558 105V114H394.39V101.32H396.499L396.534 102.785C397.245 101.652 398.253 101.086 399.558 101.086C399.98 101.086 400.3 101.141 400.519 101.25V103.266ZM405.278 114H403.11V101.32H405.278V114ZM402.934 97.957C402.934 97.6055 403.04 97.3086 403.251 97.0664C403.47 96.8242 403.79 96.7031 404.212 96.7031C404.634 96.7031 404.954 96.8242 405.173 97.0664C405.391 97.3086 405.501 97.6055 405.501 97.957C405.501 98.3086 405.391 98.6016 405.173 98.8359C404.954 99.0703 404.634 99.1875 404.212 99.1875C403.79 99.1875 403.47 99.0703 403.251 98.8359C403.04 98.6016 402.934 98.3086 402.934 97.957ZM416.541 110.637C416.541 110.051 416.319 109.598 415.873 109.277C415.436 108.949 414.666 108.668 413.565 108.434C412.471 108.199 411.6 107.918 410.952 107.59C410.311 107.262 409.834 106.871 409.522 106.418C409.217 105.965 409.065 105.426 409.065 104.801C409.065 103.762 409.502 102.883 410.377 102.164C411.26 101.445 412.385 101.086 413.752 101.086C415.19 101.086 416.354 101.457 417.245 102.199C418.143 102.941 418.592 103.891 418.592 105.047H416.413C416.413 104.453 416.159 103.941 415.651 103.512C415.151 103.082 414.518 102.867 413.752 102.867C412.963 102.867 412.346 103.039 411.901 103.383C411.455 103.727 411.233 104.176 411.233 104.73C411.233 105.254 411.44 105.648 411.854 105.914C412.268 106.18 413.014 106.434 414.092 106.676C415.178 106.918 416.057 107.207 416.729 107.543C417.401 107.879 417.897 108.285 418.217 108.762C418.545 109.23 418.709 109.805 418.709 110.484C418.709 111.617 418.256 112.527 417.35 113.215C416.444 113.895 415.268 114.234 413.823 114.234C412.807 114.234 411.909 114.055 411.127 113.695C410.346 113.336 409.733 112.836 409.288 112.195C408.85 111.547 408.631 110.848 408.631 110.098H410.799C410.838 110.824 411.127 111.402 411.666 111.832C412.213 112.254 412.932 112.465 413.823 112.465C414.643 112.465 415.299 112.301 415.791 111.973C416.291 111.637 416.541 111.191 416.541 110.637ZM424.102 102.855C425.062 101.676 426.312 101.086 427.852 101.086C430.531 101.086 431.883 102.598 431.906 105.621V114H429.738V105.609C429.73 104.695 429.52 104.02 429.105 103.582C428.699 103.145 428.062 102.926 427.195 102.926C426.492 102.926 425.875 103.113 425.344 103.488C424.812 103.863 424.398 104.355 424.102 104.965V114H421.934V96H424.102V102.855ZM446.054 110.824L449.007 101.32H451.327L446.23 115.957C445.441 118.066 444.187 119.121 442.468 119.121L442.058 119.086L441.249 118.934V117.176L441.835 117.223C442.57 117.223 443.14 117.074 443.546 116.777C443.96 116.48 444.3 115.938 444.566 115.148L445.046 113.859L440.523 101.32H442.89L446.054 110.824ZM452.911 107.543C452.911 106.301 453.153 105.184 453.638 104.191C454.13 103.199 454.809 102.434 455.677 101.895C456.552 101.355 457.548 101.086 458.665 101.086C460.391 101.086 461.786 101.684 462.848 102.879C463.919 104.074 464.454 105.664 464.454 107.648V107.801C464.454 109.035 464.216 110.145 463.739 111.129C463.27 112.105 462.595 112.867 461.712 113.414C460.837 113.961 459.829 114.234 458.688 114.234C456.97 114.234 455.575 113.637 454.505 112.441C453.442 111.246 452.911 109.664 452.911 107.695V107.543ZM455.091 107.801C455.091 109.207 455.415 110.336 456.063 111.188C456.72 112.039 457.595 112.465 458.688 112.465C459.79 112.465 460.665 112.035 461.313 111.176C461.962 110.309 462.286 109.098 462.286 107.543C462.286 106.152 461.954 105.027 461.29 104.168C460.634 103.301 459.759 102.867 458.665 102.867C457.595 102.867 456.731 103.293 456.075 104.145C455.419 104.996 455.091 106.215 455.091 107.801ZM475.401 112.746C474.557 113.738 473.319 114.234 471.686 114.234C470.334 114.234 469.303 113.844 468.592 113.062C467.889 112.273 467.534 111.109 467.526 109.57V101.32H469.694V109.512C469.694 111.434 470.475 112.395 472.038 112.395C473.694 112.395 474.795 111.777 475.342 110.543V101.32H477.51V114H475.448L475.401 112.746ZM487.344 103.266C487.016 103.211 486.66 103.184 486.277 103.184C484.855 103.184 483.891 103.789 483.383 105V114H481.215V101.32H483.324L483.359 102.785C484.07 101.652 485.078 101.086 486.383 101.086C486.805 101.086 487.125 101.141 487.344 101.25V103.266ZM498.269 102.855C499.23 101.676 500.48 101.086 502.019 101.086C504.698 101.086 506.05 102.598 506.073 105.621V114H503.905V105.609C503.898 104.695 503.687 104.02 503.273 103.582C502.866 103.145 502.23 102.926 501.362 102.926C500.659 102.926 500.042 103.113 499.511 103.488C498.98 103.863 498.566 104.355 498.269 104.965V114H496.101V96H498.269V102.855ZM517.548 114C517.423 113.75 517.321 113.305 517.243 112.664C516.235 113.711 515.032 114.234 513.634 114.234C512.384 114.234 511.356 113.883 510.552 113.18C509.755 112.469 509.356 111.57 509.356 110.484C509.356 109.164 509.856 108.141 510.856 107.414C511.864 106.68 513.278 106.312 515.098 106.312H517.208V105.316C517.208 104.559 516.981 103.957 516.528 103.512C516.075 103.059 515.407 102.832 514.524 102.832C513.751 102.832 513.102 103.027 512.579 103.418C512.055 103.809 511.794 104.281 511.794 104.836H509.614C509.614 104.203 509.837 103.594 510.282 103.008C510.735 102.414 511.345 101.945 512.11 101.602C512.884 101.258 513.731 101.086 514.653 101.086C516.114 101.086 517.259 101.453 518.087 102.188C518.915 102.914 519.345 103.918 519.376 105.199V111.035C519.376 112.199 519.524 113.125 519.821 113.812V114H517.548ZM513.95 112.348C514.63 112.348 515.274 112.172 515.884 111.82C516.493 111.469 516.934 111.012 517.208 110.449V107.848H515.509C512.852 107.848 511.524 108.625 511.524 110.18C511.524 110.859 511.751 111.391 512.204 111.773C512.657 112.156 513.239 112.348 513.95 112.348ZM525.53 114H523.362V101.32H525.53V114ZM523.186 97.957C523.186 97.6055 523.291 97.3086 523.502 97.0664C523.721 96.8242 524.041 96.7031 524.463 96.7031C524.885 96.7031 525.205 96.8242 525.424 97.0664C525.643 97.3086 525.752 97.6055 525.752 97.957C525.752 98.3086 525.643 98.6016 525.424 98.8359C525.205 99.0703 524.885 99.1875 524.463 99.1875C524.041 99.1875 523.721 99.0703 523.502 98.8359C523.291 98.6016 523.186 98.3086 523.186 97.957ZM535.539 103.266C535.211 103.211 534.855 103.184 534.473 103.184C533.051 103.184 532.086 103.789 531.578 105V114H529.41V101.32H531.52L531.555 102.785C532.266 101.652 533.273 101.086 534.578 101.086C535 101.086 535.32 101.141 535.539 101.25V103.266Z" fill="#FFFAEF"/>
<path d="M319.251 136.637C319.251 136.051 319.028 135.598 318.583 135.277C318.145 134.949 317.376 134.668 316.274 134.434C315.18 134.199 314.309 133.918 313.661 133.59C313.02 133.262 312.544 132.871 312.231 132.418C311.927 131.965 311.774 131.426 311.774 130.801C311.774 129.762 312.212 128.883 313.087 128.164C313.97 127.445 315.095 127.086 316.462 127.086C317.899 127.086 319.063 127.457 319.954 128.199C320.852 128.941 321.302 129.891 321.302 131.047H319.122C319.122 130.453 318.868 129.941 318.36 129.512C317.86 129.082 317.227 128.867 316.462 128.867C315.673 128.867 315.055 129.039 314.61 129.383C314.165 129.727 313.942 130.176 313.942 130.73C313.942 131.254 314.149 131.648 314.563 131.914C314.977 132.18 315.723 132.434 316.802 132.676C317.888 132.918 318.766 133.207 319.438 133.543C320.11 133.879 320.606 134.285 320.927 134.762C321.255 135.23 321.419 135.805 321.419 136.484C321.419 137.617 320.966 138.527 320.059 139.215C319.153 139.895 317.977 140.234 316.532 140.234C315.516 140.234 314.618 140.055 313.837 139.695C313.055 139.336 312.442 138.836 311.997 138.195C311.559 137.547 311.341 136.848 311.341 136.098H313.509C313.548 136.824 313.837 137.402 314.376 137.832C314.923 138.254 315.641 138.465 316.532 138.465C317.352 138.465 318.009 138.301 318.501 137.973C319.001 137.637 319.251 137.191 319.251 136.637ZM328.182 134.129L326.823 135.547V140H324.655V122H326.823V132.887L327.983 131.492L331.932 127.32H334.569L329.635 132.617L335.143 140H332.6L328.182 134.129ZM339.562 140H337.395V127.32H339.562V140ZM337.219 123.957C337.219 123.605 337.324 123.309 337.535 123.066C337.754 122.824 338.074 122.703 338.496 122.703C338.918 122.703 339.238 122.824 339.457 123.066C339.676 123.309 339.785 123.605 339.785 123.957C339.785 124.309 339.676 124.602 339.457 124.836C339.238 125.07 338.918 125.188 338.496 125.188C338.074 125.188 337.754 125.07 337.535 124.836C337.324 124.602 337.219 124.309 337.219 123.957ZM345.494 127.32L345.564 128.914C346.533 127.695 347.798 127.086 349.361 127.086C352.041 127.086 353.392 128.598 353.416 131.621V140H351.248V131.609C351.24 130.695 351.029 130.02 350.615 129.582C350.209 129.145 349.572 128.926 348.705 128.926C348.002 128.926 347.384 129.113 346.853 129.488C346.322 129.863 345.908 130.355 345.611 130.965V140H343.443V127.32H345.494ZM357.132 138.863C357.132 138.488 357.241 138.176 357.46 137.926C357.687 137.676 358.023 137.551 358.468 137.551C358.913 137.551 359.249 137.676 359.476 137.926C359.71 138.176 359.827 138.488 359.827 138.863C359.827 139.223 359.71 139.523 359.476 139.766C359.249 140.008 358.913 140.129 358.468 140.129C358.023 140.129 357.687 140.008 357.46 139.766C357.241 139.523 357.132 139.223 357.132 138.863Z" fill="#FFFAEF"/>
<path d="M271.55 84.6367C271.55 84.0508 271.327 83.5977 270.882 83.2773C270.445 82.9492 269.675 82.668 268.573 82.4336C267.48 82.1992 266.609 81.918 265.96 81.5898C265.32 81.2617 264.843 80.8711 264.53 80.418C264.226 79.9648 264.073 79.4258 264.073 78.8008C264.073 77.7617 264.511 76.8828 265.386 76.1641C266.269 75.4453 267.394 75.0859 268.761 75.0859C270.198 75.0859 271.362 75.457 272.253 76.1992C273.152 76.9414 273.601 77.8906 273.601 79.0469H271.421C271.421 78.4531 271.167 77.9414 270.659 77.5117C270.159 77.082 269.527 76.8672 268.761 76.8672C267.972 76.8672 267.355 77.0391 266.909 77.3828C266.464 77.7266 266.241 78.1758 266.241 78.7305C266.241 79.2539 266.448 79.6484 266.862 79.9141C267.277 80.1797 268.023 80.4336 269.101 80.6758C270.187 80.918 271.066 81.207 271.737 81.543C272.409 81.8789 272.905 82.2852 273.226 82.7617C273.554 83.2305 273.718 83.8047 273.718 84.4844C273.718 85.6172 273.265 86.5273 272.359 87.2148C271.452 87.8945 270.277 88.2344 268.831 88.2344C267.816 88.2344 266.917 88.0547 266.136 87.6953C265.355 87.3359 264.741 86.8359 264.296 86.1953C263.859 85.5469 263.64 84.8477 263.64 84.0977H265.808C265.847 84.8242 266.136 85.4023 266.675 85.832C267.222 86.2539 267.941 86.4648 268.831 86.4648C269.652 86.4648 270.308 86.3008 270.8 85.9727C271.3 85.6367 271.55 85.1914 271.55 84.6367ZM279.11 76.8555C280.071 75.6758 281.321 75.0859 282.86 75.0859C285.54 75.0859 286.891 76.5977 286.915 79.6211V88H284.747V79.6094C284.739 78.6953 284.528 78.0195 284.114 77.582C283.708 77.1445 283.071 76.9258 282.204 76.9258C281.501 76.9258 280.884 77.1133 280.352 77.4883C279.821 77.8633 279.407 78.3555 279.11 78.9648V88H276.942V70H279.11V76.8555ZM298.389 88C298.264 87.75 298.162 87.3047 298.084 86.6641C297.077 87.7109 295.873 88.2344 294.475 88.2344C293.225 88.2344 292.198 87.8828 291.393 87.1797C290.596 86.4688 290.198 85.5703 290.198 84.4844C290.198 83.1641 290.698 82.1406 291.698 81.4141C292.705 80.6797 294.12 80.3125 295.94 80.3125H298.049V79.3164C298.049 78.5586 297.823 77.957 297.37 77.5117C296.916 77.0586 296.248 76.832 295.366 76.832C294.592 76.832 293.944 77.0273 293.42 77.418C292.897 77.8086 292.635 78.2812 292.635 78.8359H290.455C290.455 78.2031 290.678 77.5938 291.123 77.0078C291.577 76.4141 292.186 75.9453 292.952 75.6016C293.725 75.2578 294.573 75.0859 295.495 75.0859C296.955 75.0859 298.1 75.4531 298.928 76.1875C299.756 76.9141 300.186 77.918 300.217 79.1992V85.0352C300.217 86.1992 300.366 87.125 300.662 87.8125V88H298.389ZM294.791 86.3477C295.471 86.3477 296.116 86.1719 296.725 85.8203C297.334 85.4688 297.776 85.0117 298.049 84.4492V81.8477H296.35C293.694 81.8477 292.366 82.625 292.366 84.1797C292.366 84.8594 292.592 85.3906 293.045 85.7734C293.498 86.1562 294.08 86.3477 294.791 86.3477ZM306.055 75.3203L306.113 76.7266C307.043 75.6328 308.297 75.0859 309.875 75.0859C311.648 75.0859 312.855 75.7656 313.496 77.125C313.918 76.5156 314.465 76.0234 315.137 75.6484C315.816 75.2734 316.617 75.0859 317.539 75.0859C320.32 75.0859 321.734 76.5586 321.781 79.5039V88H319.613V79.6328C319.613 78.7266 319.406 78.0508 318.992 77.6055C318.578 77.1523 317.883 76.9258 316.906 76.9258C316.102 76.9258 315.434 77.168 314.902 77.6523C314.371 78.1289 314.062 78.7734 313.977 79.5859V88H311.797V79.6914C311.797 77.8477 310.895 76.9258 309.09 76.9258C307.668 76.9258 306.695 77.5312 306.172 78.7422V88H304.004V75.3203H306.055ZM336.173 81.8008C336.173 83.7305 335.732 85.2852 334.849 86.4648C333.966 87.6445 332.771 88.2344 331.263 88.2344C329.724 88.2344 328.513 87.7461 327.63 86.7695V92.875H325.462V75.3203H327.443L327.548 76.7266C328.431 75.6328 329.658 75.0859 331.228 75.0859C332.752 75.0859 333.955 75.6602 334.837 76.8086C335.728 77.957 336.173 79.5547 336.173 81.6016V81.8008ZM334.005 81.5547C334.005 80.125 333.701 78.9961 333.091 78.168C332.482 77.3398 331.646 76.9258 330.584 76.9258C329.271 76.9258 328.287 77.5078 327.63 78.6719V84.7305C328.279 85.8867 329.271 86.4648 330.607 86.4648C331.646 86.4648 332.47 86.0547 333.08 85.2344C333.697 84.4062 334.005 83.1797 334.005 81.5547ZM338.765 81.543C338.765 80.3008 339.007 79.1836 339.491 78.1914C339.984 77.1992 340.663 76.4336 341.53 75.8945C342.405 75.3555 343.402 75.0859 344.519 75.0859C346.245 75.0859 347.64 75.6836 348.702 76.8789C349.773 78.0742 350.308 79.6641 350.308 81.6484V81.8008C350.308 83.0352 350.07 84.1445 349.593 85.1289C349.124 86.1055 348.448 86.8672 347.566 87.4141C346.691 87.9609 345.683 88.2344 344.542 88.2344C342.823 88.2344 341.429 87.6367 340.359 86.4414C339.296 85.2461 338.765 83.6641 338.765 81.6953V81.543ZM340.945 81.8008C340.945 83.207 341.269 84.3359 341.917 85.1875C342.573 86.0391 343.448 86.4648 344.542 86.4648C345.644 86.4648 346.519 86.0352 347.167 85.1758C347.816 84.3086 348.14 83.0977 348.14 81.543C348.14 80.1523 347.808 79.0273 347.144 78.168C346.488 77.3008 345.613 76.8672 344.519 76.8672C343.448 76.8672 342.585 77.293 341.929 78.1445C341.273 78.9961 340.945 80.2148 340.945 81.8008ZM352.852 81.543C352.852 80.3008 353.095 79.1836 353.579 78.1914C354.071 77.1992 354.751 76.4336 355.618 75.8945C356.493 75.3555 357.489 75.0859 358.606 75.0859C360.333 75.0859 361.727 75.6836 362.79 76.8789C363.86 78.0742 364.395 79.6641 364.395 81.6484V81.8008C364.395 83.0352 364.157 84.1445 363.68 85.1289C363.212 86.1055 362.536 86.8672 361.653 87.4141C360.778 87.9609 359.77 88.2344 358.63 88.2344C356.911 88.2344 355.516 87.6367 354.446 86.4414C353.384 85.2461 352.852 83.6641 352.852 81.6953V81.543ZM355.032 81.8008C355.032 83.207 355.356 84.3359 356.005 85.1875C356.661 86.0391 357.536 86.4648 358.63 86.4648C359.731 86.4648 360.606 86.0352 361.255 85.1758C361.903 84.3086 362.227 83.0977 362.227 81.543C362.227 80.1523 361.895 79.0273 361.231 78.168C360.575 77.3008 359.7 76.8672 358.606 76.8672C357.536 76.8672 356.673 77.293 356.016 78.1445C355.36 78.9961 355.032 80.2148 355.032 81.8008Z" fill="#FFFAEF"/>
<path d="M199.412 107.801C199.412 109.738 198.966 111.297 198.076 112.477C197.185 113.648 195.99 114.234 194.49 114.234C192.888 114.234 191.65 113.668 190.775 112.535L190.67 114H188.677V96H190.845V102.715C191.72 101.629 192.927 101.086 194.466 101.086C196.005 101.086 197.213 101.668 198.088 102.832C198.97 103.996 199.412 105.59 199.412 107.613V107.801ZM197.244 107.555C197.244 106.078 196.959 104.938 196.388 104.133C195.818 103.328 194.998 102.926 193.927 102.926C192.498 102.926 191.47 103.59 190.845 104.918V110.402C191.509 111.73 192.545 112.395 193.951 112.395C194.99 112.395 195.798 111.992 196.377 111.188C196.955 110.383 197.244 109.172 197.244 107.555ZM201.98 107.543C201.98 106.301 202.222 105.184 202.706 104.191C203.198 103.199 203.878 102.434 204.745 101.895C205.62 101.355 206.616 101.086 207.734 101.086C209.46 101.086 210.855 101.684 211.917 102.879C212.988 104.074 213.523 105.664 213.523 107.648V107.801C213.523 109.035 213.284 110.145 212.808 111.129C212.339 112.105 211.663 112.867 210.78 113.414C209.905 113.961 208.898 114.234 207.757 114.234C206.038 114.234 204.644 113.637 203.573 112.441C202.511 111.246 201.98 109.664 201.98 107.695V107.543ZM204.159 107.801C204.159 109.207 204.484 110.336 205.132 111.188C205.788 112.039 206.663 112.465 207.757 112.465C208.859 112.465 209.734 112.035 210.382 111.176C211.03 110.309 211.355 109.098 211.355 107.543C211.355 106.152 211.023 105.027 210.359 104.168C209.702 103.301 208.827 102.867 207.734 102.867C206.663 102.867 205.8 103.293 205.144 104.145C204.488 104.996 204.159 106.215 204.159 107.801ZM216.114 107.555C216.114 105.609 216.575 104.047 217.497 102.867C218.419 101.68 219.626 101.086 221.118 101.086C222.602 101.086 223.778 101.594 224.645 102.609V96H226.813V114H224.821L224.716 112.641C223.848 113.703 222.641 114.234 221.095 114.234C219.626 114.234 218.427 113.633 217.497 112.43C216.575 111.227 216.114 109.656 216.114 107.719V107.555ZM218.282 107.801C218.282 109.238 218.579 110.363 219.173 111.176C219.766 111.988 220.587 112.395 221.634 112.395C223.009 112.395 224.013 111.777 224.645 110.543V104.719C223.997 103.523 223.001 102.926 221.657 102.926C220.595 102.926 219.766 103.336 219.173 104.156C218.579 104.977 218.282 106.191 218.282 107.801ZM234.737 110.824L237.69 101.32H240.01L234.913 115.957C234.123 118.066 232.87 119.121 231.151 119.121L230.741 119.086L229.932 118.934V117.176L230.518 117.223C231.252 117.223 231.823 117.074 232.229 116.777C232.643 116.48 232.983 115.938 233.248 115.148L233.729 113.859L229.205 101.32H231.573L234.737 110.824ZM259.935 111.012L262.373 101.32H264.541L260.849 114H259.091L256.009 104.391L253.009 114H251.252L247.572 101.32H249.728L252.224 110.812L255.177 101.32H256.923L259.935 111.012ZM274.984 114C274.859 113.75 274.757 113.305 274.679 112.664C273.671 113.711 272.468 114.234 271.07 114.234C269.82 114.234 268.792 113.883 267.988 113.18C267.191 112.469 266.792 111.57 266.792 110.484C266.792 109.164 267.292 108.141 268.292 107.414C269.3 106.68 270.714 106.312 272.534 106.312H274.644V105.316C274.644 104.559 274.417 103.957 273.964 103.512C273.511 103.059 272.843 102.832 271.96 102.832C271.187 102.832 270.538 103.027 270.015 103.418C269.491 103.809 269.23 104.281 269.23 104.836H267.05C267.05 104.203 267.273 103.594 267.718 103.008C268.171 102.414 268.78 101.945 269.546 101.602C270.32 101.258 271.167 101.086 272.089 101.086C273.55 101.086 274.695 101.453 275.523 102.188C276.351 102.914 276.78 103.918 276.812 105.199V111.035C276.812 112.199 276.96 113.125 277.257 113.812V114H274.984ZM271.386 112.348C272.066 112.348 272.71 112.172 273.32 111.82C273.929 111.469 274.37 111.012 274.644 110.449V107.848H272.945C270.288 107.848 268.96 108.625 268.96 110.18C268.96 110.859 269.187 111.391 269.64 111.773C270.093 112.156 270.675 112.348 271.386 112.348ZM287.993 110.637C287.993 110.051 287.77 109.598 287.325 109.277C286.888 108.949 286.118 108.668 285.016 108.434C283.923 108.199 283.052 107.918 282.403 107.59C281.763 107.262 281.286 106.871 280.973 106.418C280.669 105.965 280.516 105.426 280.516 104.801C280.516 103.762 280.954 102.883 281.829 102.164C282.712 101.445 283.837 101.086 285.204 101.086C286.641 101.086 287.805 101.457 288.696 102.199C289.595 102.941 290.044 103.891 290.044 105.047H287.864C287.864 104.453 287.61 103.941 287.102 103.512C286.602 103.082 285.97 102.867 285.204 102.867C284.415 102.867 283.798 103.039 283.352 103.383C282.907 103.727 282.684 104.176 282.684 104.73C282.684 105.254 282.891 105.648 283.305 105.914C283.72 106.18 284.466 106.434 285.544 106.676C286.63 106.918 287.509 107.207 288.18 107.543C288.852 107.879 289.348 108.285 289.669 108.762C289.997 109.23 290.161 109.805 290.161 110.484C290.161 111.617 289.708 112.527 288.802 113.215C287.895 113.895 286.72 114.234 285.274 114.234C284.259 114.234 283.36 114.055 282.579 113.695C281.798 113.336 281.184 112.836 280.739 112.195C280.302 111.547 280.083 110.848 280.083 110.098H282.251C282.29 110.824 282.579 111.402 283.118 111.832C283.665 112.254 284.384 112.465 285.274 112.465C286.095 112.465 286.751 112.301 287.243 111.973C287.743 111.637 287.993 111.191 287.993 110.637ZM295.553 102.855C296.514 101.676 297.764 101.086 299.303 101.086C301.983 101.086 303.334 102.598 303.358 105.621V114H301.19V105.609C301.182 104.695 300.971 104.02 300.557 103.582C300.151 103.145 299.514 102.926 298.647 102.926C297.944 102.926 297.327 103.113 296.795 103.488C296.264 103.863 295.85 104.355 295.553 104.965V114H293.385V96H295.553V102.855Z" fill="#FFFAEF"/>
<path d="M367.378 133.555C367.378 131.578 367.835 130.008 368.749 128.844C369.663 127.672 370.874 127.086 372.382 127.086C373.929 127.086 375.136 127.633 376.003 128.727L376.109 127.32H378.089V139.695C378.089 141.336 377.601 142.629 376.624 143.574C375.655 144.52 374.351 144.992 372.71 144.992C371.796 144.992 370.902 144.797 370.027 144.406C369.152 144.016 368.484 143.48 368.023 142.801L369.148 141.5C370.077 142.648 371.214 143.223 372.558 143.223C373.612 143.223 374.433 142.926 375.019 142.332C375.612 141.738 375.909 140.902 375.909 139.824V138.734C375.042 139.734 373.859 140.234 372.359 140.234C370.874 140.234 369.671 139.637 368.749 138.441C367.835 137.246 367.378 135.617 367.378 133.555ZM369.558 133.801C369.558 135.23 369.851 136.355 370.437 137.176C371.023 137.988 371.843 138.395 372.898 138.395C374.265 138.395 375.269 137.773 375.909 136.531V130.742C375.245 129.531 374.249 128.926 372.921 128.926C371.866 128.926 371.042 129.336 370.448 130.156C369.855 130.977 369.558 132.191 369.558 133.801ZM387.032 140.234C385.313 140.234 383.915 139.672 382.837 138.547C381.759 137.414 381.22 135.902 381.22 134.012V133.613C381.22 132.355 381.458 131.234 381.934 130.25C382.419 129.258 383.091 128.484 383.95 127.93C384.817 127.367 385.755 127.086 386.762 127.086C388.411 127.086 389.692 127.629 390.606 128.715C391.52 129.801 391.977 131.355 391.977 133.379V134.281H383.387C383.419 135.531 383.782 136.543 384.477 137.316C385.18 138.082 386.071 138.465 387.149 138.465C387.915 138.465 388.563 138.309 389.095 137.996C389.626 137.684 390.091 137.27 390.489 136.754L391.813 137.785C390.751 139.418 389.157 140.234 387.032 140.234ZM386.762 128.867C385.887 128.867 385.153 129.188 384.559 129.828C383.966 130.461 383.598 131.352 383.458 132.5H389.809V132.336C389.747 131.234 389.45 130.383 388.919 129.781C388.387 129.172 387.669 128.867 386.762 128.867ZM397.838 124.25V127.32H400.205V128.996H397.838V136.859C397.838 137.367 397.944 137.75 398.155 138.008C398.366 138.258 398.725 138.383 399.233 138.383C399.483 138.383 399.827 138.336 400.264 138.242V140C399.694 140.156 399.139 140.234 398.6 140.234C397.631 140.234 396.901 139.941 396.409 139.355C395.916 138.77 395.67 137.938 395.67 136.859V128.996H393.362V127.32H395.67V124.25H397.838ZM417.892 135.605C417.892 134.887 417.638 134.281 417.13 133.789C416.63 133.297 415.783 132.852 414.587 132.453C412.923 131.945 411.709 131.285 410.943 130.473C410.185 129.652 409.806 128.613 409.806 127.355C409.806 126.074 410.177 125.023 410.92 124.203C411.67 123.383 412.697 122.895 414.002 122.738V120.172H415.748V122.75C417.06 122.93 418.08 123.48 418.806 124.402C419.541 125.324 419.908 126.586 419.908 128.188H417.752C417.752 127.086 417.49 126.211 416.966 125.562C416.443 124.914 415.736 124.59 414.845 124.59C413.916 124.59 413.205 124.832 412.712 125.316C412.22 125.793 411.974 126.461 411.974 127.32C411.974 128.117 412.232 128.754 412.748 129.23C413.271 129.699 414.127 130.129 415.314 130.52C416.509 130.902 417.439 131.328 418.103 131.797C418.775 132.258 419.267 132.797 419.58 133.414C419.9 134.031 420.06 134.754 420.06 135.582C420.06 136.902 419.662 137.965 418.865 138.77C418.076 139.574 416.966 140.051 415.537 140.199V142.438H413.802V140.199C412.349 140.066 411.209 139.551 410.38 138.652C409.56 137.746 409.15 136.52 409.15 134.973H411.318C411.318 136.059 411.603 136.895 412.173 137.48C412.744 138.066 413.552 138.359 414.599 138.359C415.623 138.359 416.427 138.113 417.013 137.621C417.599 137.129 417.892 136.457 417.892 135.605ZM434.335 140H423.155V138.441L429.062 131.879C429.937 130.887 430.538 130.082 430.866 129.465C431.202 128.84 431.37 128.195 431.37 127.531C431.37 126.641 431.101 125.91 430.562 125.34C430.023 124.77 429.304 124.484 428.405 124.484C427.327 124.484 426.487 124.793 425.886 125.41C425.292 126.02 424.995 126.871 424.995 127.965H422.827C422.827 126.395 423.331 125.125 424.339 124.156C425.355 123.188 426.71 122.703 428.405 122.703C429.991 122.703 431.245 123.121 432.167 123.957C433.089 124.785 433.55 125.891 433.55 127.273C433.55 128.953 432.48 130.953 430.339 133.273L425.769 138.23H434.335V140ZM445.54 122.926V124.766H445.141C443.454 124.797 442.11 125.297 441.11 126.266C440.11 127.234 439.532 128.598 439.376 130.355C440.274 129.324 441.501 128.809 443.055 128.809C444.54 128.809 445.723 129.332 446.606 130.379C447.497 131.426 447.942 132.777 447.942 134.434C447.942 136.191 447.462 137.598 446.501 138.652C445.548 139.707 444.266 140.234 442.657 140.234C441.024 140.234 439.7 139.609 438.684 138.359C437.669 137.102 437.161 135.484 437.161 133.508V132.676C437.161 129.535 437.829 127.137 439.165 125.48C440.509 123.816 442.505 122.965 445.153 122.926H445.54ZM442.692 130.613C441.95 130.613 441.266 130.836 440.641 131.281C440.016 131.727 439.583 132.285 439.341 132.957V133.754C439.341 135.16 439.657 136.293 440.29 137.152C440.923 138.012 441.712 138.441 442.657 138.441C443.634 138.441 444.399 138.082 444.954 137.363C445.516 136.645 445.798 135.703 445.798 134.539C445.798 133.367 445.512 132.422 444.942 131.703C444.38 130.977 443.63 130.613 442.692 130.613ZM456.91 133.543C456.91 132.301 457.152 131.184 457.637 130.191C458.129 129.199 458.809 128.434 459.676 127.895C460.551 127.355 461.547 127.086 462.664 127.086C464.391 127.086 465.785 127.684 466.848 128.879C467.918 130.074 468.453 131.664 468.453 133.648V133.801C468.453 135.035 468.215 136.145 467.738 137.129C467.27 138.105 466.594 138.867 465.711 139.414C464.836 139.961 463.828 140.234 462.688 140.234C460.969 140.234 459.574 139.637 458.504 138.441C457.441 137.246 456.91 135.664 456.91 133.695V133.543ZM459.09 133.801C459.09 135.207 459.414 136.336 460.062 137.188C460.719 138.039 461.594 138.465 462.688 138.465C463.789 138.465 464.664 138.035 465.312 137.176C465.961 136.309 466.285 135.098 466.285 133.543C466.285 132.152 465.953 131.027 465.289 130.168C464.633 129.301 463.758 128.867 462.664 128.867C461.594 128.867 460.73 129.293 460.074 130.145C459.418 130.996 459.09 132.215 459.09 133.801ZM472.638 140V128.996H470.634V127.32H472.638V126.02C472.638 124.66 473.002 123.609 473.728 122.867C474.455 122.125 475.482 121.754 476.81 121.754C477.31 121.754 477.806 121.82 478.298 121.953L478.181 123.711C477.814 123.641 477.423 123.605 477.009 123.605C476.306 123.605 475.763 123.812 475.38 124.227C474.998 124.633 474.806 125.219 474.806 125.984V127.32H477.513V128.996H474.806V140H472.638ZM481.382 140V128.996H479.378V127.32H481.382V126.02C481.382 124.66 481.745 123.609 482.472 122.867C483.198 122.125 484.226 121.754 485.554 121.754C486.054 121.754 486.55 121.82 487.042 121.953L486.925 123.711C486.558 123.641 486.167 123.605 485.753 123.605C485.05 123.605 484.507 123.812 484.124 124.227C483.741 124.633 483.55 125.219 483.55 125.984V127.32H486.257V128.996H483.55V140H481.382ZM489.106 138.863C489.106 138.488 489.216 138.176 489.434 137.926C489.661 137.676 489.997 137.551 490.442 137.551C490.887 137.551 491.223 137.676 491.45 137.926C491.684 138.176 491.802 138.488 491.802 138.863C491.802 139.223 491.684 139.523 491.45 139.766C491.223 140.008 490.887 140.129 490.442 140.129C489.997 140.129 489.661 140.008 489.434 139.766C489.216 139.523 489.106 139.223 489.106 138.863Z" fill="#FFFAEF"/>
<path d="M398.551 86.4648C399.324 86.4648 400 86.2305 400.578 85.7617C401.156 85.293 401.477 84.707 401.539 84.0039H403.59C403.551 84.7305 403.301 85.4219 402.84 86.0781C402.379 86.7344 401.762 87.2578 400.988 87.6484C400.223 88.0391 399.41 88.2344 398.551 88.2344C396.824 88.2344 395.449 87.6602 394.426 86.5117C393.41 85.3555 392.902 83.7773 392.902 81.7773V81.4141C392.902 80.1797 393.129 79.082 393.582 78.1211C394.035 77.1602 394.684 76.4141 395.527 75.8828C396.379 75.3516 397.383 75.0859 398.539 75.0859C399.961 75.0859 401.141 75.5117 402.078 76.3633C403.023 77.2148 403.527 78.3203 403.59 79.6797H401.539C401.477 78.8594 401.164 78.1875 400.602 77.6641C400.047 77.1328 399.359 76.8672 398.539 76.8672C397.438 76.8672 396.582 77.2656 395.973 78.0625C395.371 78.8516 395.07 79.9961 395.07 81.4961V81.9062C395.07 83.3672 395.371 84.4922 395.973 85.2812C396.574 86.0703 397.434 86.4648 398.551 86.4648ZM405.853 81.543C405.853 80.3008 406.095 79.1836 406.58 78.1914C407.072 77.1992 407.752 76.4336 408.619 75.8945C409.494 75.3555 410.49 75.0859 411.607 75.0859C413.334 75.0859 414.728 75.6836 415.791 76.8789C416.861 78.0742 417.396 79.6641 417.396 81.6484V81.8008C417.396 83.0352 417.158 84.1445 416.681 85.1289C416.212 86.1055 415.537 86.8672 414.654 87.4141C413.779 87.9609 412.771 88.2344 411.63 88.2344C409.912 88.2344 408.517 87.6367 407.447 86.4414C406.384 85.2461 405.853 83.6641 405.853 81.6953V81.543ZM408.033 81.8008C408.033 83.207 408.357 84.3359 409.005 85.1875C409.662 86.0391 410.537 86.4648 411.63 86.4648C412.732 86.4648 413.607 86.0352 414.255 85.1758C414.904 84.3086 415.228 83.0977 415.228 81.543C415.228 80.1523 414.896 79.0273 414.232 78.168C413.576 77.3008 412.701 76.8672 411.607 76.8672C410.537 76.8672 409.673 77.293 409.017 78.1445C408.361 78.9961 408.033 80.2148 408.033 81.8008ZM422.566 75.3203L422.636 76.9141C423.605 75.6953 424.87 75.0859 426.433 75.0859C429.112 75.0859 430.464 76.5977 430.487 79.6211V88H428.32V79.6094C428.312 78.6953 428.101 78.0195 427.687 77.582C427.28 77.1445 426.644 76.9258 425.777 76.9258C425.073 76.9258 424.456 77.1133 423.925 77.4883C423.394 77.8633 422.98 78.3555 422.683 78.9648V88H420.515V75.3203H422.566ZM433.63 81.5547C433.63 79.6094 434.091 78.0469 435.013 76.8672C435.934 75.6797 437.141 75.0859 438.634 75.0859C440.118 75.0859 441.294 75.5938 442.161 76.6094V70H444.329V88H442.337L442.231 86.6406C441.364 87.7031 440.157 88.2344 438.61 88.2344C437.141 88.2344 435.942 87.6328 435.013 86.4297C434.091 85.2266 433.63 83.6562 433.63 81.7188V81.5547ZM435.798 81.8008C435.798 83.2383 436.095 84.3633 436.688 85.1758C437.282 85.9883 438.102 86.3945 439.149 86.3945C440.524 86.3945 441.528 85.7773 442.161 84.543V78.7188C441.513 77.5234 440.516 76.9258 439.173 76.9258C438.11 76.9258 437.282 77.3359 436.688 78.1562C436.095 78.9766 435.798 80.1914 435.798 81.8008ZM450.459 88H448.291V75.3203H450.459V88ZM448.116 71.957C448.116 71.6055 448.221 71.3086 448.432 71.0664C448.651 70.8242 448.971 70.7031 449.393 70.7031C449.815 70.7031 450.135 70.8242 450.354 71.0664C450.573 71.3086 450.682 71.6055 450.682 71.957C450.682 72.3086 450.573 72.6016 450.354 72.8359C450.135 73.0703 449.815 73.1875 449.393 73.1875C448.971 73.1875 448.651 73.0703 448.432 72.8359C448.221 72.6016 448.116 72.3086 448.116 71.957ZM457.281 72.25V75.3203H459.648V76.9961H457.281V84.8594C457.281 85.3672 457.387 85.75 457.598 86.0078C457.809 86.2578 458.168 86.3828 458.676 86.3828C458.926 86.3828 459.27 86.3359 459.707 86.2422V88C459.137 88.1562 458.582 88.2344 458.043 88.2344C457.074 88.2344 456.344 87.9414 455.852 87.3555C455.359 86.7695 455.113 85.9375 455.113 84.8594V76.9961H452.805V75.3203H455.113V72.25H457.281ZM464.947 88H462.779V75.3203H464.947V88ZM462.603 71.957C462.603 71.6055 462.709 71.3086 462.92 71.0664C463.138 70.8242 463.459 70.7031 463.88 70.7031C464.302 70.7031 464.623 70.8242 464.841 71.0664C465.06 71.3086 465.17 71.6055 465.17 71.957C465.17 72.3086 465.06 72.6016 464.841 72.8359C464.623 73.0703 464.302 73.1875 463.88 73.1875C463.459 73.1875 463.138 73.0703 462.92 72.8359C462.709 72.6016 462.603 72.3086 462.603 71.957ZM468.253 81.543C468.253 80.3008 468.495 79.1836 468.98 78.1914C469.472 77.1992 470.152 76.4336 471.019 75.8945C471.894 75.3555 472.89 75.0859 474.007 75.0859C475.734 75.0859 477.128 75.6836 478.191 76.8789C479.261 78.0742 479.796 79.6641 479.796 81.6484V81.8008C479.796 83.0352 479.558 84.1445 479.081 85.1289C478.613 86.1055 477.937 86.8672 477.054 87.4141C476.179 87.9609 475.171 88.2344 474.03 88.2344C472.312 88.2344 470.917 87.6367 469.847 86.4414C468.784 85.2461 468.253 83.6641 468.253 81.6953V81.543ZM470.433 81.8008C470.433 83.207 470.757 84.3359 471.405 85.1875C472.062 86.0391 472.937 86.4648 474.03 86.4648C475.132 86.4648 476.007 86.0352 476.655 85.1758C477.304 84.3086 477.628 83.0977 477.628 81.543C477.628 80.1523 477.296 79.0273 476.632 78.168C475.976 77.3008 475.101 76.8672 474.007 76.8672C472.937 76.8672 472.073 77.293 471.417 78.1445C470.761 78.9961 470.433 80.2148 470.433 81.8008ZM484.966 75.3203L485.036 76.9141C486.005 75.6953 487.27 75.0859 488.833 75.0859C491.512 75.0859 492.864 76.5977 492.887 79.6211V88H490.72V79.6094C490.712 78.6953 490.501 78.0195 490.087 77.582C489.68 77.1445 489.044 76.9258 488.177 76.9258C487.473 76.9258 486.856 77.1133 486.325 77.4883C485.794 77.8633 485.38 78.3555 485.083 78.9648V88H482.915V75.3203H484.966ZM501.819 88.2344C500.1 88.2344 498.702 87.6719 497.623 86.5469C496.545 85.4141 496.006 83.9023 496.006 82.0117V81.6133C496.006 80.3555 496.245 79.2344 496.721 78.25C497.205 77.2578 497.877 76.4844 498.737 75.9297C499.604 75.3672 500.541 75.0859 501.549 75.0859C503.198 75.0859 504.479 75.6289 505.393 76.7148C506.307 77.8008 506.764 79.3555 506.764 81.3789V82.2812H498.174C498.205 83.5312 498.569 84.543 499.264 85.3164C499.967 86.082 500.858 86.4648 501.936 86.4648C502.702 86.4648 503.35 86.3086 503.881 85.9961C504.412 85.6836 504.877 85.2695 505.276 84.7539L506.6 85.7852C505.537 87.418 503.944 88.2344 501.819 88.2344ZM501.549 76.8672C500.674 76.8672 499.94 77.1875 499.346 77.8281C498.752 78.4609 498.385 79.3516 498.245 80.5H504.596V80.3359C504.534 79.2344 504.237 78.3828 503.705 77.7812C503.174 77.1719 502.455 76.8672 501.549 76.8672ZM515.812 77.2656C515.484 77.2109 515.129 77.1836 514.746 77.1836C513.324 77.1836 512.359 77.7891 511.852 79V88H509.684V75.3203H511.793L511.828 76.7852C512.539 75.6523 513.547 75.0859 514.852 75.0859C515.273 75.0859 515.594 75.1406 515.812 75.25V77.2656Z" fill="#FFFAEF"/>
<path d="M290.219 135.418C290.219 134.598 290.445 133.844 290.898 133.156C291.359 132.469 292.234 131.668 293.523 130.754C292.766 129.832 292.258 129.09 292 128.527C291.742 127.965 291.613 127.406 291.613 126.852C291.613 125.555 291.996 124.539 292.762 123.805C293.527 123.07 294.566 122.703 295.879 122.703C297.051 122.703 298.02 123.047 298.785 123.734C299.551 124.414 299.934 125.273 299.934 126.312C299.934 127 299.758 127.637 299.406 128.223C299.062 128.801 298.457 129.41 297.59 130.051L296.336 130.977L300.133 135.512C300.664 134.496 300.93 133.367 300.93 132.125H302.887C302.887 134.117 302.406 135.77 301.445 137.082L303.883 140H301.281L300.145 138.652C299.566 139.168 298.887 139.562 298.105 139.836C297.332 140.102 296.543 140.234 295.738 140.234C294.074 140.234 292.738 139.793 291.73 138.91C290.723 138.027 290.219 136.863 290.219 135.418ZM295.738 138.465C296.887 138.465 297.938 138.027 298.891 137.152L294.73 132.172L294.344 132.453C293.039 133.414 292.387 134.402 292.387 135.418C292.387 136.34 292.684 137.078 293.277 137.633C293.879 138.188 294.699 138.465 295.738 138.465ZM293.781 126.781C293.781 127.531 294.242 128.469 295.164 129.594L296.547 128.621C297.078 128.246 297.441 127.891 297.637 127.555C297.832 127.211 297.93 126.797 297.93 126.312C297.93 125.789 297.734 125.355 297.344 125.012C296.953 124.66 296.461 124.484 295.867 124.484C295.227 124.484 294.719 124.703 294.344 125.141C293.969 125.57 293.781 126.117 293.781 126.781Z" fill="#FFFAEF"/>
<path d="M157.987 41.9551C157.987 41.0762 157.653 40.3965 156.985 39.916C156.329 39.4238 155.174 39.002 153.522 38.6504C151.881 38.2988 150.575 37.877 149.602 37.3848C148.641 36.8926 147.926 36.3066 147.457 35.627C147 34.9473 146.772 34.1387 146.772 33.2012C146.772 31.6426 147.428 30.3242 148.741 29.2461C150.065 28.168 151.752 27.6289 153.803 27.6289C155.959 27.6289 157.705 28.1855 159.041 29.2988C160.389 30.4121 161.063 31.8359 161.063 33.5703H157.793C157.793 32.6797 157.413 31.9121 156.651 31.2676C155.901 30.623 154.952 30.3008 153.803 30.3008C152.62 30.3008 151.694 30.5586 151.026 31.0742C150.358 31.5898 150.024 32.2637 150.024 33.0957C150.024 33.8809 150.334 34.4727 150.955 34.8711C151.577 35.2695 152.696 35.6504 154.313 36.0137C155.942 36.377 157.26 36.8105 158.268 37.3145C159.276 37.8184 160.02 38.4277 160.5 39.1426C160.993 39.8457 161.239 40.707 161.239 41.7266C161.239 43.4258 160.559 44.791 159.2 45.8223C157.84 46.8418 156.077 47.3516 153.909 47.3516C152.385 47.3516 151.038 47.082 149.866 46.543C148.694 46.0039 147.774 45.2539 147.106 44.293C146.45 43.3203 146.121 42.2715 146.121 41.1465H149.373C149.432 42.2363 149.866 43.1035 150.674 43.748C151.495 44.3809 152.573 44.6973 153.909 44.6973C155.139 44.6973 156.123 44.4512 156.862 43.959C157.612 43.4551 157.987 42.7871 157.987 41.9551ZM169.127 30.2832C170.568 28.5137 172.443 27.6289 174.752 27.6289C178.771 27.6289 180.799 29.8965 180.834 34.4316V47H177.582V34.4141C177.57 33.043 177.254 32.0293 176.633 31.373C176.023 30.7168 175.068 30.3887 173.768 30.3887C172.713 30.3887 171.787 30.6699 170.99 31.2324C170.193 31.7949 169.572 32.5332 169.127 33.4473V47H165.875V20H169.127V30.2832ZM185.242 37.3145C185.242 35.4512 185.605 33.7754 186.332 32.2871C187.07 30.7988 188.089 29.6504 189.39 28.8418C190.703 28.0332 192.197 27.6289 193.873 27.6289C196.463 27.6289 198.554 28.5254 200.148 30.3184C201.754 32.1113 202.556 34.4961 202.556 37.4727V37.7012C202.556 39.5527 202.199 41.2168 201.484 42.6934C200.781 44.1582 199.767 45.3008 198.443 46.1211C197.13 46.9414 195.619 47.3516 193.908 47.3516C191.33 47.3516 189.238 46.4551 187.632 44.6621C186.039 42.8691 185.242 40.4961 185.242 37.543V37.3145ZM188.511 37.7012C188.511 39.8105 188.998 41.5039 189.97 42.7812C190.955 44.0586 192.267 44.6973 193.908 44.6973C195.56 44.6973 196.873 44.0527 197.845 42.7637C198.818 41.4629 199.304 39.6465 199.304 37.3145C199.304 35.2285 198.806 33.541 197.81 32.252C196.826 30.9512 195.513 30.3008 193.873 30.3008C192.267 30.3008 190.972 30.9395 189.988 32.2168C189.004 33.4941 188.511 35.3223 188.511 37.7012ZM223.874 42.5176L227.53 27.9805H230.782L225.245 47H222.609L217.986 32.5859L213.486 47H210.849L205.329 27.9805H208.564L212.308 42.2188L216.738 27.9805H219.357L223.874 42.5176ZM242.397 47.3516C239.819 47.3516 237.721 46.5078 236.104 44.8203C234.487 43.1211 233.679 40.8535 233.679 38.0176V37.4199C233.679 35.5332 234.036 33.8516 234.751 32.375C235.477 30.8867 236.485 29.7266 237.774 28.8945C239.075 28.0508 240.481 27.6289 241.993 27.6289C244.466 27.6289 246.388 28.4434 247.759 30.0723C249.13 31.7012 249.815 34.0332 249.815 37.0684V38.4219H236.93C236.977 40.2969 237.522 41.8145 238.565 42.9746C239.62 44.123 240.956 44.6973 242.573 44.6973C243.721 44.6973 244.694 44.4629 245.491 43.9941C246.288 43.5254 246.985 42.9043 247.583 42.1309L249.569 43.6777C247.975 46.127 245.585 47.3516 242.397 47.3516ZM241.993 30.3008C240.68 30.3008 239.579 30.7812 238.688 31.7422C237.798 32.6914 237.247 34.0273 237.036 35.75H246.563V35.5039C246.47 33.8516 246.024 32.5742 245.227 31.6719C244.43 30.7578 243.352 30.3008 241.993 30.3008ZM263.188 30.8984C262.696 30.8164 262.163 30.7754 261.588 30.7754C259.455 30.7754 258.008 31.6836 257.246 33.5V47H253.995V27.9805H257.159L257.211 30.1777C258.278 28.4785 259.789 27.6289 261.746 27.6289C262.379 27.6289 262.86 27.7109 263.188 27.875V30.8984ZM285.117 30.8984C284.625 30.8164 284.091 30.7754 283.517 30.7754C281.384 30.7754 279.937 31.6836 279.175 33.5V47H275.923V27.9805H279.088L279.14 30.1777C280.207 28.4785 281.718 27.6289 283.675 27.6289C284.308 27.6289 284.789 27.7109 285.117 27.875V30.8984ZM287.31 37.3145C287.31 35.4512 287.673 33.7754 288.4 32.2871C289.138 30.7988 290.157 29.6504 291.458 28.8418C292.771 28.0332 294.265 27.6289 295.941 27.6289C298.53 27.6289 300.622 28.5254 302.216 30.3184C303.821 32.1113 304.624 34.4961 304.624 37.4727V37.7012C304.624 39.5527 304.267 41.2168 303.552 42.6934C302.849 44.1582 301.835 45.3008 300.511 46.1211C299.198 46.9414 297.687 47.3516 295.976 47.3516C293.398 47.3516 291.306 46.4551 289.7 44.6621C288.107 42.8691 287.31 40.4961 287.31 37.543V37.3145ZM290.579 37.7012C290.579 39.8105 291.066 41.5039 292.038 42.7812C293.023 44.0586 294.335 44.6973 295.976 44.6973C297.628 44.6973 298.941 44.0527 299.913 42.7637C300.886 41.4629 301.372 39.6465 301.372 37.3145C301.372 35.2285 300.874 33.541 299.878 32.252C298.894 30.9512 297.581 30.3008 295.941 30.3008C294.335 30.3008 293.04 30.9395 292.056 32.2168C291.071 33.4941 290.579 35.3223 290.579 37.7012ZM320.845 45.1191C319.579 46.6074 317.721 47.3516 315.272 47.3516C313.245 47.3516 311.698 46.7656 310.632 45.5938C309.577 44.4102 309.044 42.6641 309.032 40.3555V27.9805H312.284V40.2676C312.284 43.1504 313.456 44.5918 315.8 44.5918C318.284 44.5918 319.936 43.666 320.757 41.8145V27.9805H324.009V47H320.915L320.845 45.1191ZM333.778 23.375V27.9805H337.329V30.4941H333.778V42.2891C333.778 43.0508 333.936 43.625 334.252 44.0117C334.569 44.3867 335.108 44.5742 335.87 44.5742C336.245 44.5742 336.76 44.5039 337.416 44.3633V47C336.561 47.2344 335.729 47.3516 334.92 47.3516C333.467 47.3516 332.371 46.9121 331.633 46.0332C330.895 45.1543 330.526 43.9062 330.526 42.2891V30.4941H327.063V27.9805H330.526V23.375H333.778ZM345.076 47H341.824V27.9805H345.076V47ZM341.561 22.9355C341.561 22.4082 341.719 21.9629 342.035 21.5996C342.363 21.2363 342.844 21.0547 343.477 21.0547C344.109 21.0547 344.59 21.2363 344.918 21.5996C345.246 21.9629 345.41 22.4082 345.41 22.9355C345.41 23.4629 345.246 23.9023 344.918 24.2539C344.59 24.6055 344.109 24.7812 343.477 24.7812C342.844 24.7812 342.363 24.6055 342.035 24.2539C341.719 23.9023 341.561 23.4629 341.561 22.9355ZM353.773 27.9805L353.879 30.3711C355.332 28.543 357.23 27.6289 359.574 27.6289C363.593 27.6289 365.621 29.8965 365.656 34.4316V47H362.404V34.4141C362.392 33.043 362.076 32.0293 361.455 31.373C360.845 30.7168 359.89 30.3887 358.589 30.3887C357.535 30.3887 356.609 30.6699 355.812 31.2324C355.015 31.7949 354.394 32.5332 353.949 33.4473V47H350.697V27.9805H353.773ZM378.853 47.3516C376.275 47.3516 374.177 46.5078 372.56 44.8203C370.943 43.1211 370.134 40.8535 370.134 38.0176V37.4199C370.134 35.5332 370.491 33.8516 371.206 32.375C371.933 30.8867 372.941 29.7266 374.23 28.8945C375.53 28.0508 376.937 27.6289 378.448 27.6289C380.921 27.6289 382.843 28.4434 384.214 30.0723C385.585 31.7012 386.271 34.0332 386.271 37.0684V38.4219H373.386C373.433 40.2969 373.978 41.8145 375.021 42.9746C376.075 44.123 377.411 44.6973 379.029 44.6973C380.177 44.6973 381.15 44.4629 381.946 43.9941C382.743 43.5254 383.441 42.9043 384.038 42.1309L386.025 43.6777C384.431 46.127 382.04 47.3516 378.853 47.3516ZM378.448 30.3008C377.136 30.3008 376.034 30.7812 375.144 31.7422C374.253 32.6914 373.702 34.0273 373.491 35.75H383.019V35.5039C382.925 33.8516 382.48 32.5742 381.683 31.6719C380.886 30.7578 379.808 30.3008 378.448 30.3008ZM410.854 41.9551C410.854 41.0762 410.52 40.3965 409.852 39.916C409.196 39.4238 408.041 39.002 406.389 38.6504C404.748 38.2988 403.442 37.877 402.469 37.3848C401.508 36.8926 400.793 36.3066 400.325 35.627C399.868 34.9473 399.639 34.1387 399.639 33.2012C399.639 31.6426 400.295 30.3242 401.608 29.2461C402.932 28.168 404.62 27.6289 406.67 27.6289C408.827 27.6289 410.573 28.1855 411.909 29.2988C413.256 30.4121 413.93 31.8359 413.93 33.5703H410.661C410.661 32.6797 410.28 31.9121 409.518 31.2676C408.768 30.623 407.819 30.3008 406.67 30.3008C405.487 30.3008 404.561 30.5586 403.893 31.0742C403.225 31.5898 402.891 32.2637 402.891 33.0957C402.891 33.8809 403.202 34.4727 403.823 34.8711C404.444 35.2695 405.563 35.6504 407.18 36.0137C408.809 36.377 410.127 36.8105 411.135 37.3145C412.143 37.8184 412.887 38.4277 413.368 39.1426C413.86 39.8457 414.106 40.707 414.106 41.7266C414.106 43.4258 413.426 44.791 412.067 45.8223C410.707 46.8418 408.944 47.3516 406.776 47.3516C405.252 47.3516 403.905 47.082 402.733 46.543C401.561 46.0039 400.641 45.2539 399.973 44.293C399.317 43.3203 398.989 42.2715 398.989 41.1465H402.241C402.299 42.2363 402.733 43.1035 403.541 43.748C404.362 44.3809 405.44 44.6973 406.776 44.6973C408.006 44.6973 408.991 44.4512 409.729 43.959C410.479 43.4551 410.854 42.7871 410.854 41.9551ZM426.635 47.3516C424.057 47.3516 421.959 46.5078 420.342 44.8203C418.725 43.1211 417.916 40.8535 417.916 38.0176V37.4199C417.916 35.5332 418.273 33.8516 418.988 32.375C419.715 30.8867 420.723 29.7266 422.012 28.8945C423.312 28.0508 424.719 27.6289 426.23 27.6289C428.703 27.6289 430.625 28.4434 431.996 30.0723C433.367 31.7012 434.053 34.0332 434.053 37.0684V38.4219H421.168C421.215 40.2969 421.76 41.8145 422.803 42.9746C423.857 44.123 425.193 44.6973 426.811 44.6973C427.959 44.6973 428.932 44.4629 429.729 43.9941C430.525 43.5254 431.223 42.9043 431.82 42.1309L433.807 43.6777C432.213 46.127 429.822 47.3516 426.635 47.3516ZM426.23 30.3008C424.918 30.3008 423.816 30.7812 422.926 31.7422C422.035 32.6914 421.484 34.0273 421.273 35.75H430.801V35.5039C430.707 33.8516 430.262 32.5742 429.465 31.6719C428.668 30.7578 427.59 30.3008 426.23 30.3008ZM442.644 23.375V27.9805H446.195V30.4941H442.644V42.2891C442.644 43.0508 442.802 43.625 443.119 44.0117C443.435 44.3867 443.974 44.5742 444.736 44.5742C445.111 44.5742 445.627 44.5039 446.283 44.3633V47C445.427 47.2344 444.595 47.3516 443.787 47.3516C442.334 47.3516 441.238 46.9121 440.5 46.0332C439.761 45.1543 439.392 43.9062 439.392 42.2891V30.4941H435.929V27.9805H439.392V23.375H442.644Z" fill="#FFFAEF"/>
<path d="M496.403 35.8281H475.528V33.4688H496.403V35.8281ZM520.391 40.1406C520.391 39.1823 520.052 38.375 519.375 37.7188C518.708 37.0625 517.578 36.4688 515.984 35.9375C513.766 35.2604 512.146 34.3802 511.125 33.2969C510.115 32.2031 509.609 30.8177 509.609 29.1406C509.609 27.4323 510.104 26.0312 511.094 24.9375C512.094 23.8438 513.464 23.1927 515.203 22.9844V19.5625H517.531V23C519.281 23.2396 520.641 23.974 521.609 25.2031C522.589 26.4323 523.078 28.1146 523.078 30.25H520.203C520.203 28.7812 519.854 27.6146 519.156 26.75C518.458 25.8854 517.516 25.4531 516.328 25.4531C515.089 25.4531 514.141 25.776 513.484 26.4219C512.828 27.0573 512.5 27.9479 512.5 29.0938C512.5 30.1562 512.844 31.0052 513.531 31.6406C514.229 32.2656 515.37 32.8385 516.953 33.3594C518.547 33.8698 519.786 34.4375 520.672 35.0625C521.568 35.6771 522.224 36.3958 522.641 37.2188C523.068 38.0417 523.281 39.0052 523.281 40.1094C523.281 41.8698 522.75 43.2865 521.688 44.3594C520.635 45.4323 519.156 46.0677 517.25 46.2656V49.25H514.938V46.2656C513 46.0885 511.479 45.401 510.375 44.2031C509.281 42.9948 508.734 41.3594 508.734 39.2969H511.625C511.625 40.7448 512.005 41.8594 512.766 42.6406C513.526 43.4219 514.604 43.8125 516 43.8125C517.365 43.8125 518.438 43.4844 519.219 42.8281C520 42.1719 520.391 41.276 520.391 40.1406ZM539.478 38.3594H542.634V40.7188H539.478V46H536.572V40.7188H526.213V39.0156L536.4 23.25H539.478V38.3594ZM529.494 38.3594H536.572V27.2031L536.228 27.8281L529.494 38.3594ZM556.988 23.2344V25.6875H556.456C554.206 25.7292 552.415 26.3958 551.081 27.6875C549.748 28.9792 548.977 30.7969 548.769 33.1406C549.967 31.7656 551.602 31.0781 553.675 31.0781C555.654 31.0781 557.232 31.776 558.409 33.1719C559.597 34.5677 560.191 36.3698 560.191 38.5781C560.191 40.9219 559.55 42.7969 558.269 44.2031C556.998 45.6094 555.29 46.3125 553.144 46.3125C550.967 46.3125 549.201 45.4792 547.847 43.8125C546.493 42.1354 545.816 39.9792 545.816 37.3438V36.2344C545.816 32.0469 546.706 28.849 548.488 26.6406C550.279 24.4219 552.941 23.2865 556.472 23.2344H556.988ZM553.191 33.4844C552.201 33.4844 551.29 33.7812 550.456 34.375C549.623 34.9688 549.045 35.7135 548.722 36.6094V37.6719C548.722 39.5469 549.144 41.0573 549.988 42.2031C550.831 43.349 551.883 43.9219 553.144 43.9219C554.446 43.9219 555.467 43.4427 556.206 42.4844C556.956 41.526 557.331 40.2708 557.331 38.7188C557.331 37.1562 556.951 35.8958 556.191 34.9375C555.441 33.9688 554.441 33.4844 553.191 33.4844Z" fill="#FFFAEF"/>
</svg>
